<svg xmlns="http://www.w3.org/2000/svg" width="151" height="43" viewBox="0 0 151 43" fill="none"><ellipse cx="29.4191" cy="12.258" rx="12.258" ry="12.258" fill="#FF0000" fill-opacity="0.61"></ellipse><ellipse cx="12.258" cy="12.258" rx="12.258" ry="12.258" fill="#FFFF00" fill-opacity="0.61"></ellipse><ellipse cx="29.4191" cy="29.7624" rx="12.258" ry="12.258" fill="#00B050" fill-opacity="0.61"></ellipse><ellipse cx="12.258" cy="29.7624" rx="12.258" ry="12.258" fill="#D8D8D8" fill-opacity="0.61"></ellipse><path d="M53.4058 22.6255V23.0103H47.3634V22.6255H47.8626C48.445 22.6255 48.8679 22.4556 49.1314 22.1159C49.2978 21.894 49.381 21.3601 49.381 20.5143V11.4039C49.381 10.6897 49.3359 10.2183 49.2458 9.98948C49.1765 9.81615 49.0343 9.66708 48.8194 9.54228C48.5143 9.37588 48.1954 9.29268 47.8626 9.29268H47.3634V8.90788H53.4058V9.29268H52.8962C52.3207 9.29268 51.9013 9.46255 51.6378 9.80228C51.4645 10.0241 51.3778 10.558 51.3778 11.4039V20.5143C51.3778 21.2284 51.4229 21.6999 51.513 21.9287C51.5823 22.102 51.7279 22.2511 51.9498 22.3759C52.2479 22.5423 52.5634 22.6255 52.8962 22.6255H53.4058ZM66.749 8.58548L67.0714 13.3799H66.749C66.3191 11.9447 65.7055 10.9116 64.9082 10.2807C64.1108 9.64975 63.154 9.33428 62.0378 9.33428C61.1018 9.33428 60.2559 9.57348 59.5002 10.0519C58.7444 10.5233 58.1482 11.2791 57.7114 12.3191C57.2815 13.3591 57.0666 14.6521 57.0666 16.1983C57.0666 17.474 57.2711 18.5799 57.6802 19.5159C58.0893 20.4519 58.7029 21.1695 59.521 21.6687C60.346 22.1679 61.2855 22.4175 62.3394 22.4175C63.2546 22.4175 64.0623 22.2233 64.7626 21.8351C65.4628 21.4399 66.2324 20.6599 67.0714 19.4951L67.3938 19.7031C66.6866 20.958 65.8615 21.8767 64.9186 22.4591C63.9756 23.0415 62.8559 23.3327 61.5594 23.3327C59.2228 23.3327 57.4133 22.466 56.1306 20.7327C55.1738 19.4431 54.6954 17.9247 54.6954 16.1775C54.6954 14.77 55.0109 13.4769 55.6418 12.2983C56.2727 11.1196 57.1394 10.2079 58.2418 9.56308C59.3511 8.91135 60.561 8.58548 61.8714 8.58548C62.8906 8.58548 63.8959 8.83508 64.8874 9.33428C65.1786 9.48682 65.3866 9.56308 65.5114 9.56308C65.6986 9.56308 65.8615 9.49722 66.0002 9.36548C66.1804 9.17828 66.3087 8.91828 66.385 8.58548H66.749ZM72.5106 15.4495H79.0625V11.4143C79.0625 10.6932 79.0175 10.2183 78.9273 9.98948C78.858 9.81615 78.7124 9.66708 78.4905 9.54228C78.1924 9.37588 77.8769 9.29268 77.5441 9.29268H77.0449V8.90788H83.0769V9.29268H82.5777C82.2449 9.29268 81.9295 9.37242 81.6313 9.53188C81.4095 9.64281 81.2569 9.81268 81.1737 10.0415C81.0975 10.2633 81.0593 10.7209 81.0593 11.4143V20.5143C81.0593 21.2284 81.1044 21.6999 81.1945 21.9287C81.2639 22.102 81.406 22.2511 81.6209 22.3759C81.926 22.5423 82.2449 22.6255 82.5777 22.6255H83.0769V23.0103H77.0449V22.6255H77.5441C78.1196 22.6255 78.5391 22.4556 78.8025 22.1159C78.9759 21.894 79.0625 21.3601 79.0625 20.5143V16.2191H72.5106V20.5143C72.5106 21.2284 72.5556 21.6999 72.6458 21.9287C72.7151 22.102 72.8607 22.2511 73.0826 22.3759C73.3807 22.5423 73.6962 22.6255 74.029 22.6255H74.5386V23.0103H68.4962V22.6255H68.9954C69.5778 22.6255 70.0007 22.4556 70.2642 22.1159C70.4306 21.894 70.5138 21.3601 70.5138 20.5143V11.4143C70.5138 10.6932 70.4687 10.2183 70.3786 9.98948C70.3092 9.81615 70.1671 9.66708 69.9522 9.54228C69.6471 9.37588 69.3282 9.29268 68.9954 9.29268H68.4962V8.90788H74.5386V9.29268H74.029C73.6962 9.29268 73.3807 9.37242 73.0826 9.53188C72.8676 9.64281 72.7186 9.81268 72.6354 10.0415C72.5522 10.2633 72.5106 10.7209 72.5106 11.4143V15.4495ZM90.0969 22.6255V23.0103H84.0545V22.6255H84.5537C85.1361 22.6255 85.5591 22.4556 85.8225 22.1159C85.9889 21.894 86.0721 21.3601 86.0721 20.5143V11.4039C86.0721 10.6897 86.0271 10.2183 85.9369 9.98948C85.8676 9.81615 85.7255 9.66708 85.5105 9.54228C85.2055 9.37588 84.8865 9.29268 84.5537 9.29268H84.0545V8.90788H90.0969V9.29268H89.5873C89.0119 9.29268 88.5924 9.46255 88.3289 9.80228C88.1556 10.0241 88.0689 10.558 88.0689 11.4039V20.5143C88.0689 21.2284 88.114 21.6999 88.2041 21.9287C88.2735 22.102 88.4191 22.2511 88.6409 22.3759C88.9391 22.5423 89.2545 22.6255 89.5873 22.6255H90.0969ZM107.475 8.58548V13.4631H107.09C106.966 12.5271 106.74 11.7817 106.414 11.2271C106.096 10.6724 105.638 10.2321 105.042 9.90628C104.445 9.58041 103.828 9.41748 103.19 9.41748C102.469 9.41748 101.873 9.63935 101.402 10.0831C100.93 10.5199 100.694 11.0191 100.694 11.5807C100.694 12.0105 100.844 12.4023 101.142 12.7559C101.572 13.2759 102.594 13.9692 104.21 14.8359C105.527 15.5431 106.425 16.0873 106.903 16.4687C107.389 16.8431 107.76 17.2868 108.016 17.7999C108.28 18.3129 108.411 18.8503 108.411 19.4119C108.411 20.4796 107.995 21.4017 107.163 22.1783C106.338 22.9479 105.274 23.3327 103.97 23.3327C103.561 23.3327 103.177 23.3015 102.816 23.2391C102.601 23.2044 102.154 23.0796 101.474 22.8647C100.802 22.6428 100.376 22.5319 100.195 22.5319C100.022 22.5319 99.8833 22.5839 99.7793 22.6879C99.6822 22.7919 99.6094 23.0068 99.5609 23.3327H99.1761V18.4967H99.5609C99.7412 19.5089 99.9838 20.2681 100.289 20.7743C100.594 21.2735 101.058 21.6895 101.682 22.0223C102.313 22.3551 103.003 22.5215 103.752 22.5215C104.619 22.5215 105.302 22.2927 105.801 21.8351C106.307 21.3775 106.56 20.8367 106.56 20.2127C106.56 19.866 106.463 19.5159 106.269 19.1623C106.082 18.8087 105.787 18.4793 105.385 18.1743C105.114 17.9663 104.376 17.526 103.17 16.8535C101.963 16.174 101.104 15.6332 100.59 15.2311C100.084 14.8289 99.6996 14.3852 99.4361 13.8999C99.1726 13.4145 99.0409 12.8807 99.0409 12.2983C99.0409 11.286 99.4292 10.4159 100.206 9.68788C100.982 8.95295 101.97 8.58548 103.17 8.58548C103.918 8.58548 104.712 8.76922 105.551 9.13668C105.94 9.31002 106.213 9.39668 106.373 9.39668C106.553 9.39668 106.699 9.34468 106.81 9.24068C106.928 9.12975 107.021 8.91135 107.09 8.58548H107.475ZM117.355 8.58548C119.186 8.58548 120.77 9.28228 122.108 10.6759C123.453 12.0625 124.126 13.7959 124.126 15.8759C124.126 18.0183 123.45 19.7967 122.098 21.2111C120.746 22.6255 119.109 23.3327 117.189 23.3327C115.248 23.3327 113.615 22.6428 112.29 21.2631C110.973 19.8833 110.314 18.098 110.314 15.9071C110.314 13.6676 111.077 11.8407 112.602 10.4263C113.927 9.19908 115.511 8.58548 117.355 8.58548ZM117.158 9.34468C115.896 9.34468 114.884 9.81268 114.121 10.7487C113.171 11.9135 112.696 13.6191 112.696 15.8655C112.696 18.1673 113.188 19.9388 114.173 21.1799C114.929 22.1228 115.927 22.5943 117.168 22.5943C118.492 22.5943 119.584 22.0777 120.444 21.0447C121.311 20.0116 121.744 18.3823 121.744 16.1567C121.744 13.7439 121.269 11.9447 120.319 10.7591C119.557 9.81615 118.503 9.34468 117.158 9.34468ZM129.315 9.67748V15.2207H131.884C132.473 15.2207 132.903 15.0924 133.174 14.8359C133.451 14.5724 133.635 14.0559 133.725 13.2863H134.11V18.0599H133.725C133.718 17.5121 133.645 17.11 133.506 16.8535C133.375 16.5969 133.187 16.4063 132.945 16.2815C132.709 16.1497 132.356 16.0839 131.884 16.0839H129.315V20.5143C129.315 21.2284 129.36 21.6999 129.45 21.9287C129.52 22.102 129.665 22.2511 129.887 22.3759C130.192 22.5423 130.511 22.6255 130.844 22.6255H131.354V23.0103H125.301V22.6255H125.8C126.382 22.6255 126.805 22.4556 127.069 22.1159C127.235 21.894 127.318 21.3601 127.318 20.5143V11.4039C127.318 10.6897 127.273 10.2183 127.183 9.98948C127.114 9.81615 126.972 9.66708 126.757 9.54228C126.459 9.37588 126.14 9.29268 125.8 9.29268H125.301V8.90788H135.794L135.93 12.0071H135.566C135.385 11.3484 135.174 10.8665 134.931 10.5615C134.695 10.2495 134.401 10.0241 134.047 9.88548C133.701 9.74681 133.16 9.67748 132.425 9.67748H129.315ZM149.138 8.90788L149.294 12.2151H148.898C148.822 11.6327 148.718 11.2167 148.586 10.9671C148.371 10.5649 148.084 10.2703 147.723 10.0831C147.37 9.88895 146.902 9.79188 146.319 9.79188H144.333V20.5663C144.333 21.4329 144.426 21.9737 144.614 22.1887C144.877 22.4799 145.283 22.6255 145.83 22.6255H146.319V23.0103H140.339V22.6255H140.838C141.435 22.6255 141.858 22.4452 142.107 22.0847C142.26 21.8628 142.336 21.3567 142.336 20.5663V9.79188H140.641C139.982 9.79188 139.514 9.84041 139.237 9.93748C138.876 10.0692 138.568 10.3223 138.311 10.6967C138.055 11.0711 137.902 11.5772 137.854 12.2151H137.458L137.625 8.90788H149.138Z" fill="black"></path><path d="M97.1897 22.6255V23.0103H91.1473V22.6255H91.6465C92.2289 22.6255 92.6518 22.4556 92.9153 22.1159C93.0817 21.894 93.1649 21.3601 93.1649 20.5143V11.4039C93.1649 10.6897 93.1198 10.2183 93.0297 9.98948C92.9604 9.81615 92.8182 9.66708 92.6033 9.54228C92.2982 9.37588 91.9793 9.29268 91.6465 9.29268H91.1473V8.90788H97.1897V9.29268H96.6801C96.1046 9.29268 95.6852 9.46255 95.4217 9.80228C95.2484 10.0241 95.1617 10.558 95.1617 11.4039V20.5143C95.1617 21.2284 95.2068 21.6999 95.2969 21.9287C95.3662 22.102 95.5118 22.2511 95.7337 22.3759C96.0318 22.5423 96.3473 22.6255 96.6801 22.6255H97.1897Z" fill="#C00000"></path><path d="M51.8052 30.3206L51.8681 31.6549H51.7087C51.6779 31.4199 51.6359 31.2521 51.5828 31.1514C51.4961 30.9891 51.38 30.8703 51.2345 30.7947C51.0919 30.7164 50.903 30.6772 50.6681 30.6772H49.8667V35.0242C49.8667 35.3739 49.9044 35.5921 49.9799 35.6788C50.0862 35.7963 50.2499 35.855 50.4709 35.855H50.6681V36.0103H48.2554V35.855H48.4568C48.6974 35.855 48.868 35.7823 48.9687 35.6368C49.0303 35.5473 49.061 35.3431 49.061 35.0242V30.6772H48.3771C48.1114 30.6772 47.9225 30.6968 47.8107 30.736C47.6652 30.7891 47.5407 30.8912 47.4372 31.0423C47.3337 31.1933 47.2722 31.3975 47.2526 31.6549H47.0932L47.1603 30.3206H51.8052ZM53.4835 30.0437V32.8549C53.794 32.5137 54.0402 32.2955 54.222 32.2004C54.4038 32.1025 54.5857 32.0535 54.7675 32.0535C54.9857 32.0535 55.1731 32.1136 55.3297 32.2339C55.4864 32.3542 55.6025 32.543 55.678 32.8004C55.7311 32.9794 55.7577 33.3067 55.7577 33.7822V35.1417C55.7577 35.3851 55.7773 35.5515 55.8165 35.641C55.8444 35.7081 55.892 35.7613 55.9591 35.8005C56.0263 35.8396 56.1493 35.8592 56.3284 35.8592V36.0103H54.4402V35.8592H54.5283C54.7073 35.8592 54.8318 35.8326 54.9018 35.7795C54.9717 35.7235 55.0206 35.6424 55.0486 35.5361C55.057 35.4914 55.0612 35.3599 55.0612 35.1417V33.7822C55.0612 33.3626 55.0388 33.0871 54.9941 32.9556C54.9521 32.8242 54.8836 32.7263 54.7885 32.6619C54.6934 32.5948 54.5787 32.5612 54.4444 32.5612C54.3073 32.5612 54.1647 32.5976 54.0164 32.6703C53.8682 32.743 53.6905 32.8899 53.4835 33.1109V35.1417C53.4835 35.4046 53.4975 35.5683 53.5255 35.6326C53.5563 35.697 53.6108 35.7515 53.6891 35.7963C53.7703 35.8382 53.9087 35.8592 54.1045 35.8592V36.0103H52.1996V35.8592C52.3702 35.8592 52.5045 35.8326 52.6024 35.7795C52.6583 35.7515 52.7031 35.6984 52.7367 35.62C52.7702 35.5417 52.787 35.3823 52.787 35.1417V31.6633C52.787 31.2241 52.7758 30.9542 52.7534 30.8535C52.7339 30.7528 52.7017 30.6842 52.6569 30.6479C52.615 30.6115 52.5576 30.5933 52.4849 30.5933C52.4262 30.5933 52.3311 30.6157 52.1996 30.6605L52.1408 30.5136L53.2905 30.0437H53.4835ZM57.2976 33.6144C57.2948 34.185 57.4333 34.6326 57.713 34.9571C57.9927 35.2816 58.3214 35.4438 58.6991 35.4438C58.9508 35.4438 59.169 35.3753 59.3536 35.2382C59.541 35.0983 59.6977 34.8606 59.8236 34.5249L59.9536 34.6088C59.8949 34.992 59.7243 35.3417 59.4417 35.6578C59.1592 35.9711 58.8054 36.1277 58.3802 36.1277C57.9186 36.1277 57.5228 35.9487 57.1927 35.5907C56.8654 35.2298 56.7018 34.7459 56.7018 34.1389C56.7018 33.4815 56.8696 32.9696 57.2053 32.6032C57.5438 32.2339 57.9676 32.0493 58.4767 32.0493C58.9075 32.0493 59.2613 32.192 59.5382 32.4773C59.8152 32.7598 59.9536 33.1388 59.9536 33.6144H57.2976ZM57.2976 33.371H59.0767C59.0627 33.1249 59.0333 32.9514 58.9886 32.8507C58.9186 32.6941 58.8137 32.571 58.6739 32.4815C58.5368 32.392 58.3928 32.3472 58.2417 32.3472C58.0095 32.3472 57.8011 32.4381 57.6165 32.62C57.4347 32.799 57.3284 33.0493 57.2976 33.371ZM62.4964 36.0103V35.855H62.7104C62.9509 35.855 63.1216 35.7781 63.2223 35.6242C63.2838 35.5319 63.3146 35.3249 63.3146 35.0032V31.3276C63.3146 30.9724 63.2754 30.75 63.1971 30.6605C63.088 30.5374 62.9257 30.4758 62.7104 30.4758H62.4964V30.3206H64.8125C65.6629 30.3206 66.309 30.4171 66.751 30.6101C67.1958 30.8031 67.5524 31.1248 67.821 31.5752C68.0923 32.0255 68.228 32.5458 68.228 33.1361C68.228 33.9277 67.9874 34.5892 67.5063 35.1207C66.9664 35.7137 66.144 36.0103 65.0391 36.0103H62.4964ZM64.1202 35.5991C64.4754 35.6774 64.7733 35.7165 65.0139 35.7165C65.6629 35.7165 66.2014 35.4886 66.6293 35.0326C67.0573 34.5766 67.2713 33.9585 67.2713 33.178C67.2713 32.392 67.0573 31.7724 66.6293 31.3192C66.2014 30.8661 65.6517 30.6395 64.9803 30.6395C64.7286 30.6395 64.4419 30.68 64.1202 30.7612V35.5991ZM69.8056 30.0437C69.9231 30.0437 70.0224 30.0856 70.1036 30.1695C70.1875 30.2507 70.2294 30.35 70.2294 30.4674C70.2294 30.5849 70.1875 30.6856 70.1036 30.7696C70.0224 30.8535 69.9231 30.8954 69.8056 30.8954C69.6882 30.8954 69.5875 30.8535 69.5035 30.7696C69.4196 30.6856 69.3777 30.5849 69.3777 30.4674C69.3777 30.35 69.4182 30.2507 69.4993 30.1695C69.5833 30.0856 69.6854 30.0437 69.8056 30.0437ZM70.1539 32.0535V35.1417C70.1539 35.3823 70.1707 35.5431 70.2043 35.6242C70.2406 35.7026 70.2924 35.7613 70.3595 35.8005C70.4294 35.8396 70.5553 35.8592 70.7371 35.8592V36.0103H68.87V35.8592C69.0574 35.8592 69.1833 35.841 69.2476 35.8047C69.3119 35.7683 69.3623 35.7081 69.3986 35.6242C69.4378 35.5403 69.4574 35.3795 69.4574 35.1417V33.6605C69.4574 33.2437 69.4448 32.9738 69.4196 32.8507C69.4 32.7612 69.3693 32.6997 69.3273 32.6661C69.2854 32.6297 69.228 32.6116 69.1553 32.6116C69.077 32.6116 68.9818 32.6325 68.87 32.6745L68.8112 32.5234L69.9693 32.0535H70.1539ZM72.7218 32.4689V34.9948C72.7218 35.3529 72.761 35.5795 72.8393 35.6746C72.9428 35.7977 73.0813 35.8592 73.2547 35.8592H73.6029V36.0103H71.3078V35.8592H71.4798C71.5917 35.8592 71.6938 35.8312 71.7861 35.7753C71.8784 35.7193 71.9414 35.6438 71.9749 35.5487C72.0113 35.4536 72.0295 35.269 72.0295 34.9948V32.4689H71.2826V32.1668H72.0295V31.915C72.0295 31.5318 72.091 31.2073 72.2141 30.9416C72.3372 30.6758 72.5246 30.4619 72.7764 30.2996C73.0309 30.1346 73.3162 30.0521 73.6323 30.0521C73.926 30.0521 74.196 30.1472 74.4421 30.3374C74.6044 30.4633 74.6855 30.6045 74.6855 30.7612C74.6855 30.8451 74.6491 30.9248 74.5764 31.0003C74.5037 31.0731 74.4253 31.1094 74.3414 31.1094C74.2771 31.1094 74.2086 31.087 74.1358 31.0423C74.0659 30.9947 73.9792 30.8954 73.8757 30.7444C73.7722 30.5905 73.6771 30.487 73.5904 30.4339C73.5036 30.3807 73.4071 30.3542 73.3008 30.3542C73.1722 30.3542 73.0631 30.3891 72.9736 30.4591C72.884 30.5262 72.8197 30.6325 72.7805 30.7779C72.7414 30.9206 72.7218 31.2912 72.7218 31.8899V32.1668H73.712V32.4689H72.7218ZM75.5834 32.4689V34.9948C75.5834 35.3529 75.6226 35.5795 75.7009 35.6746C75.8044 35.7977 75.9429 35.8592 76.1163 35.8592H76.4646V36.0103H74.1694V35.8592H74.3414C74.4533 35.8592 74.5554 35.8312 74.6477 35.7753C74.74 35.7193 74.803 35.6438 74.8365 35.5487C74.8729 35.4536 74.8911 35.269 74.8911 34.9948V32.4689H74.1442V32.1668H74.8911V31.915C74.8911 31.5318 74.9526 31.2073 75.0757 30.9416C75.1988 30.6758 75.3862 30.4619 75.638 30.2996C75.8925 30.1346 76.1778 30.0521 76.4939 30.0521C76.7876 30.0521 77.0576 30.1472 77.3037 30.3374C77.466 30.4633 77.5471 30.6045 77.5471 30.7612C77.5471 30.8451 77.5107 30.9248 77.438 31.0003C77.3653 31.0731 77.287 31.1094 77.203 31.1094C77.1387 31.1094 77.0702 31.087 76.9974 31.0423C76.9275 30.9947 76.8408 30.8954 76.7373 30.7444C76.6338 30.5905 76.5387 30.487 76.452 30.4339C76.3653 30.3807 76.2688 30.3542 76.1625 30.3542C76.0338 30.3542 75.9247 30.3891 75.8352 30.4591C75.7457 30.5262 75.6813 30.6325 75.6422 30.7779C75.603 30.9206 75.5834 31.2912 75.5834 31.8899V32.1668H76.5737V32.4689H75.5834ZM77.5891 33.6144C77.5863 34.185 77.7247 34.6326 78.0045 34.9571C78.2842 35.2816 78.6129 35.4438 78.9905 35.4438C79.2423 35.4438 79.4604 35.3753 79.6451 35.2382C79.8325 35.0983 79.9891 34.8606 80.115 34.5249L80.2451 34.6088C80.1863 34.992 80.0157 35.3417 79.7332 35.6578C79.4507 35.9711 79.0968 36.1277 78.6716 36.1277C78.2101 36.1277 77.8143 35.9487 77.4842 35.5907C77.1569 35.2298 76.9932 34.7459 76.9932 34.1389C76.9932 33.4815 77.1611 32.9696 77.4968 32.6032C77.8352 32.2339 78.259 32.0493 78.7681 32.0493C79.1989 32.0493 79.5528 32.192 79.8297 32.4773C80.1066 32.7598 80.2451 33.1388 80.2451 33.6144H77.5891ZM77.5891 33.371H79.3681C79.3542 33.1249 79.3248 32.9514 79.28 32.8507C79.2101 32.6941 79.1052 32.571 78.9653 32.4815C78.8283 32.392 78.6842 32.3472 78.5332 32.3472C78.301 32.3472 78.0926 32.4381 77.908 32.62C77.7261 32.799 77.6198 33.0493 77.5891 33.371ZM81.8857 32.0535V32.9179C82.2074 32.3416 82.5375 32.0535 82.8759 32.0535C83.0298 32.0535 83.157 32.1011 83.2577 32.1962C83.3585 32.2885 83.4088 32.3962 83.4088 32.5193C83.4088 32.6283 83.3724 32.7207 83.2997 32.7962C83.227 32.8717 83.1403 32.9095 83.0396 32.9095C82.9417 32.9095 82.8312 32.8619 82.7081 32.7668C82.5878 32.6689 82.4983 32.62 82.4395 32.62C82.3892 32.62 82.3346 32.6479 82.2759 32.7039C82.15 32.8186 82.02 33.0074 81.8857 33.2703V35.1123C81.8857 35.3249 81.9123 35.4858 81.9654 35.5949C82.0018 35.6704 82.0661 35.7333 82.1584 35.7837C82.2507 35.834 82.3836 35.8592 82.557 35.8592V36.0103H80.5891V35.8592C80.785 35.8592 80.9304 35.8284 81.0255 35.7669C81.0955 35.7221 81.1444 35.6508 81.1724 35.5529C81.1864 35.5053 81.1934 35.3697 81.1934 35.1459V33.6563C81.1934 33.2088 81.1836 32.943 81.164 32.8591C81.1472 32.7724 81.1136 32.7095 81.0633 32.6703C81.0157 32.6311 80.9556 32.6116 80.8829 32.6116C80.7961 32.6116 80.6982 32.6325 80.5891 32.6745L80.5472 32.5234L81.7095 32.0535H81.8857ZM84.269 33.6144C84.2662 34.185 84.4046 34.6326 84.6844 34.9571C84.9641 35.2816 85.2928 35.4438 85.6704 35.4438C85.9222 35.4438 86.1403 35.3753 86.325 35.2382C86.5124 35.0983 86.669 34.8606 86.7949 34.5249L86.925 34.6088C86.8662 34.992 86.6956 35.3417 86.4131 35.6578C86.1306 35.9711 85.7767 36.1277 85.3515 36.1277C84.89 36.1277 84.4941 35.9487 84.1641 35.5907C83.8368 35.2298 83.6731 34.7459 83.6731 34.1389C83.6731 33.4815 83.841 32.9696 84.1767 32.6032C84.5151 32.2339 84.9389 32.0493 85.448 32.0493C85.8788 32.0493 86.2327 32.192 86.5096 32.4773C86.7865 32.7598 86.925 33.1388 86.925 33.6144H84.269ZM84.269 33.371H86.048C86.034 33.1249 86.0047 32.9514 85.9599 32.8507C85.89 32.6941 85.7851 32.571 85.6452 32.4815C85.5082 32.392 85.3641 32.3472 85.213 32.3472C84.9809 32.3472 84.7725 32.4381 84.5879 32.62C84.406 32.799 84.2997 33.0493 84.269 33.371ZM88.5614 32.8675C89.0117 32.3248 89.4411 32.0535 89.8495 32.0535C90.0593 32.0535 90.2398 32.1067 90.3908 32.213C90.5419 32.3164 90.6621 32.4885 90.7517 32.729C90.8132 32.8969 90.844 33.1542 90.844 33.5011V35.1417C90.844 35.3851 90.8635 35.5501 90.9027 35.6368C90.9335 35.7067 90.9824 35.7613 91.0496 35.8005C91.1195 35.8396 91.2468 35.8592 91.4314 35.8592V36.0103H89.5306V35.8592H89.6104C89.7894 35.8592 89.9139 35.8326 89.9838 35.7795C90.0565 35.7235 90.1069 35.6424 90.1349 35.5361C90.146 35.4942 90.1516 35.3627 90.1516 35.1417V33.5682C90.1516 33.2186 90.1055 32.9654 90.0132 32.8088C89.9237 32.6493 89.7712 32.5696 89.5558 32.5696C89.2229 32.5696 88.8915 32.7514 88.5614 33.1151V35.1417C88.5614 35.4018 88.5768 35.5627 88.6075 35.6242C88.6467 35.7054 88.6999 35.7655 88.767 35.8047C88.8369 35.841 88.9768 35.8592 89.1866 35.8592V36.0103H87.2858V35.8592H87.3697C87.5656 35.8592 87.697 35.8102 87.7642 35.7123C87.8341 35.6116 87.8691 35.4214 87.8691 35.1417V33.7151C87.8691 33.2535 87.8579 32.9724 87.8355 32.8717C87.8159 32.771 87.7837 32.7025 87.739 32.6661C87.697 32.6297 87.6397 32.6116 87.567 32.6116C87.4886 32.6116 87.3949 32.6325 87.2858 32.6745L87.2229 32.5234L88.381 32.0535H88.5614V32.8675ZM95.0021 34.5501C94.8986 35.0564 94.6958 35.4466 94.3937 35.7207C94.0916 35.9921 93.7573 36.1277 93.3909 36.1277C92.9545 36.1277 92.5741 35.9445 92.2496 35.5781C91.9251 35.2116 91.7629 34.7165 91.7629 34.0927C91.7629 33.4885 91.9419 32.9976 92.2999 32.62C92.6608 32.2423 93.093 32.0535 93.5965 32.0535C93.9741 32.0535 94.2846 32.1542 94.528 32.3556C94.7713 32.5542 94.893 32.7612 94.893 32.9766C94.893 33.0829 94.8581 33.1696 94.7881 33.2368C94.721 33.3011 94.6259 33.3333 94.5028 33.3333C94.3378 33.3333 94.2133 33.2801 94.1294 33.1738C94.0818 33.1151 94.0496 33.0032 94.0329 32.8381C94.0189 32.6731 93.9629 32.5472 93.865 32.4605C93.7671 32.3766 93.6315 32.3346 93.458 32.3346C93.1783 32.3346 92.9531 32.4381 92.7825 32.6451C92.5559 32.9193 92.4426 33.2815 92.4426 33.7319C92.4426 34.1906 92.5545 34.5962 92.7783 34.9487C93.0049 35.2983 93.3098 35.4732 93.693 35.4732C93.9671 35.4732 94.2133 35.3795 94.4315 35.1921C94.5853 35.0634 94.735 34.8298 94.8804 34.4913L95.0021 34.5501ZM96.2022 33.6144C96.1994 34.185 96.3378 34.6326 96.6175 34.9571C96.8973 35.2816 97.226 35.4438 97.6036 35.4438C97.8553 35.4438 98.0735 35.3753 98.2581 35.2382C98.4456 35.0983 98.6022 34.8606 98.7281 34.5249L98.8582 34.6088C98.7994 34.992 98.6288 35.3417 98.3463 35.6578C98.0637 35.9711 97.7099 36.1277 97.2847 36.1277C96.8231 36.1277 96.4273 35.9487 96.0973 35.5907C95.77 35.2298 95.6063 34.7459 95.6063 34.1389C95.6063 33.4815 95.7742 32.9696 96.1098 32.6032C96.4483 32.2339 96.8721 32.0493 97.3812 32.0493C97.812 32.0493 98.1658 32.192 98.4428 32.4773C98.7197 32.7598 98.8582 33.1388 98.8582 33.6144H96.2022ZM96.2022 33.371H97.9812C97.9672 33.1249 97.9379 32.9514 97.8931 32.8507C97.8232 32.6941 97.7183 32.571 97.5784 32.4815C97.4413 32.392 97.2973 32.3472 97.1462 32.3472C96.9141 32.3472 96.7057 32.4381 96.521 32.62C96.3392 32.799 96.2329 33.0493 96.2022 33.371Z" fill="#999999"></path></svg>